<?xml version="1.0" encoding="UTF-8" standalone="no"?>
<svg width="490px" height="490px" viewBox="0 0 490 490" version="1.1" xmlns="http://www.w3.org/2000/svg" xmlns:xlink="http://www.w3.org/1999/xlink" xmlns:sketch="http://www.bohemiancoding.com/sketch/ns">
    <!-- Generator: Sketch 3.4 (15588) - http://www.bohemiancoding.com/sketch -->
    <title>Oval 49 Copy + Rectangle 1 + Oval 50 Copy</title>
    <desc>Created with Sketch.</desc>
    <defs>
        <rect id="path-1" x="20" y="56" width="459" height="313"></rect>
    </defs>
    <g id="Page-1" stroke="none" stroke-width="1" fill="none" fill-rule="evenodd" sketch:type="MSPage">
        <g id="Oval-49-Copy-+-Rectangle-1-+-Oval-50-Copy" sketch:type="MSLayerGroup" transform="translate(245.000000, 245.000000) rotate(-270.000000) translate(-245.000000, -245.000000) ">
            <rect id="Rectangle-3" fill="#F9F9F9" sketch:type="MSShapeGroup" x="0" y="0" width="490" height="490"></rect>
            <mask id="mask-2" sketch:name="Mask" fill="white">
                <use xlink:href="#path-1"></use>
            </mask>
            <use id="Mask" sketch:type="MSShapeGroup" xlink:href="#path-1"></use>
            <path d="M245.5,492 C255.86777,492 266.143596,491.250018 276.272341,489.766009 L274.532738,477.892771 C264.979559,479.292451 255.285128,480 245.5,480 L245.5,492 L245.5,492 Z M329.599416,474.526819 C339.044618,470.406062 348.167969,465.595437 356.900069,460.138864 L350.540912,449.962366 C342.307161,455.107527 333.70533,459.643161 324.800851,463.528011 L329.599416,474.526819 L329.599416,474.526819 Z M399.66563,424.830258 C406.678832,417.290187 413.134142,409.247023 418.974635,400.767768 L409.092125,393.960715 C403.583436,401.958253 397.494421,409.545022 390.878914,416.657522 L399.66563,424.830258 L399.66563,424.830258 Z M444.113073,351.40396 C447.525079,341.709469 450.223924,331.757323 452.181637,321.612018 L440.399004,319.338354 C438.553574,328.901782 436.009731,338.282347 432.793683,347.420065 L444.113073,351.40396 L444.113073,351.40396 Z M455.453577,266.219099 C454.712412,255.891977 453.220517,245.693348 450.998057,235.682292 L439.283262,238.282984 C441.37857,247.721279 442.785313,257.337807 443.484363,267.078115 L455.453577,266.219099 L455.453577,266.219099 Z M431.889817,183.589253 C427.090946,174.472066 421.627424,165.720687 415.548438,157.404431 L405.8607,164.485937 C411.59379,172.328997 416.745991,180.581707 421.270968,189.178532 L431.889817,183.589253 L431.889817,183.589253 Z M377.264301,117.330922 C369.236178,110.879413 360.746199,105.021902 351.863057,99.8106948 L345.791086,110.161113 C354.168207,115.075469 362.17531,120.599828 369.747367,126.684836 L377.264301,117.330922 L377.264301,117.330922 Z M300.786066,78.3368593 C290.879834,75.6473234 280.759205,73.6833325 270.485551,72.4679692 L269.075792,84.3848724 C278.762854,85.5308424 288.303809,87.3823427 297.641895,89.9176273 L300.786066,78.3368593 L300.786066,78.3368593 Z M215.014104,73.1922242 C204.779536,74.6773471 194.712366,76.9091414 184.875192,79.8627837 L188.326035,91.3558982 C197.598563,88.5717927 207.088342,86.4680005 216.737357,85.0678461 L215.014104,73.1922242 L215.014104,73.1922242 Z M134.342099,102.710036 C125.601079,108.155723 117.269106,114.236673 109.414382,120.898821 L117.17644,130.050348 C124.585297,123.766373 132.443834,118.030951 140.687457,112.895144 L134.342099,102.710036 L134.342099,102.710036 Z M72.1760878,162.013705 C66.3234687,170.48772 61.097846,179.380697 56.5464741,188.623203 L67.3119612,193.92455 C71.6032651,185.210167 76.530776,176.824518 82.050026,168.833188 L72.1760878,162.013705 L72.1760878,162.013705 Z M38.8693787,241.124514 C36.9147537,251.184536 35.692516,261.417164 35.2212444,271.76471 L47.208818,272.310675 C47.6534044,262.549049 48.8060687,252.898893 50.6490903,243.413268 L38.8693787,241.124514 L38.8693787,241.124514 Z M39.9383126,327.030127 C42.1619234,337.113432 45.1223669,346.988769 48.7898535,356.590725 L59.9999741,352.308997 C56.5430969,343.258443 53.7527279,333.950435 51.6567562,324.445929 L39.9383126,327.030127 L39.9383126,327.030127 Z M75.2430509,405.309817 C81.3050817,413.632102 87.9697689,421.502856 95.1786287,428.855902 L103.747508,420.455051 C96.9472846,413.518814 90.6605461,406.094404 84.9426369,398.244547 L75.2430509,405.309817 L75.2430509,405.309817 Z M138.924084,463.064266 C147.797894,468.284007 157.046648,472.847486 166.601139,476.712755 L171.101427,465.588574 C162.094456,461.944804 153.37499,457.642484 145.008199,452.720981 L138.924084,463.064266 L138.924084,463.064266 Z M220.252819,490.500914 C228.586605,491.497356 237.011004,491.999846 245.49609,492 L245.496308,480 C237.487563,479.999854 229.538813,479.525735 221.677469,478.585782 L220.252819,490.500914 L220.252819,490.500914 Z" id="Shape" fill="#2092ED" sketch:type="MSShapeGroup" mask="url(#mask-2)"></path>
            <path d="M351,282 C351,223.457817 303.542183,176 245,176 C186.457817,176 139,223.457817 139,282 L351,282 Z" id="Oval-50-Copy" fill="#2092ED" sketch:type="MSShapeGroup" mask="url(#mask-2)"></path>
        </g>
    </g>
</svg>