<?xml version="1.0" encoding="UTF-8" standalone="no"?>
<svg width="486px" height="490px" viewBox="0 0 486 490" version="1.1" xmlns="http://www.w3.org/2000/svg" xmlns:xlink="http://www.w3.org/1999/xlink" xmlns:sketch="http://www.bohemiancoding.com/sketch/ns">
    <!-- Generator: Sketch 3.4 (15588) - http://www.bohemiancoding.com/sketch -->
    <title>Oval 49 Copy + Rectangle 1 + Oval 50 Copy</title>
    <desc>Created with Sketch.</desc>
    <defs>
        <rect id="path-1" x="0" y="42" width="490" height="327"></rect>
    </defs>
    <g id="Page-1" stroke="none" stroke-width="1" fill="none" fill-rule="evenodd" sketch:type="MSPage">
        <g id="Oval-49-Copy-+-Rectangle-1-+-Oval-50-Copy" sketch:type="MSLayerGroup" transform="translate(243.000000, 245.000000) rotate(-270.000000) translate(-243.000000, -245.000000) translate(-2.000000, 2.000000)">
            <rect id="Rectangle-3" fill="#F9F9F9" sketch:type="MSShapeGroup" x="0" y="0" width="490" height="486"></rect>
            <mask id="mask-2" sketch:name="Mask" fill="white">
                <use xlink:href="#path-1"></use>
            </mask>
            <use id="Mask" sketch:type="MSShapeGroup" xlink:href="#path-1"></use>
            <path d="M245.5,516.5 C257.057329,516.5 268.520174,515.663383 279.824029,514.007203 L270.98105,453.651576 C262.602981,454.879086 254.095569,455.5 245.5,455.5 L245.5,516.5 L245.5,516.5 Z M339.396486,496.982718 C349.945663,492.380318 360.133784,487.008254 369.88335,480.915881 L337.557632,429.185349 C330.341346,433.69471 322.804284,437.668904 315.003781,441.072112 L339.396486,496.982718 L339.396486,496.982718 Z M417.605176,441.516261 C425.430337,433.103233 432.633499,424.128261 439.151428,414.665503 L388.915332,380.06298 C384.084078,387.077015 378.742917,393.731977 372.939368,399.971519 L417.605176,441.516261 L417.605176,441.516261 Z M467.223493,359.537745 C471.035581,348.706508 474.050889,337.587387 476.237847,326.254081 L416.342794,314.69629 C414.726609,323.071718 412.49923,331.285307 409.683262,339.28628 L467.223493,359.537745 L467.223493,359.537745 Z M479.890723,264.465275 C479.063574,252.940076 477.397826,241.552987 474.915761,230.372547 L415.365558,243.592729 C417.201261,251.86164 418.434151,260.289708 419.047217,268.831939 L479.890723,264.465275 L479.890723,264.465275 Z M453.569968,172.17781 C448.211895,161.998217 442.112758,152.228721 435.327569,142.946355 L386.081568,178.944012 C391.108456,185.820964 395.625042,193.055556 399.590817,200.589975 L453.569968,172.17781 L453.569968,172.17781 Z M392.611373,98.2333465 C383.652116,91.0335656 374.176264,84.4958698 364.259998,78.6785901 L333.394145,131.293218 C340.738142,135.601502 347.759373,140.445675 354.400296,145.782412 L392.611373,98.2333465 L392.611373,98.2333465 Z M307.205416,54.6927913 C296.139218,51.6883256 284.835087,49.4946665 273.363807,48.1376251 L266.197536,108.715216 C274.686971,109.719508 283.044424,111.34134 291.222545,113.561695 L307.205416,54.6927913 L307.205416,54.6927913 Z M211.495794,48.9461628 C200.065724,50.6047632 188.819715,53.0978949 177.82972,56.397675 L195.371507,114.821007 C203.491215,112.383039 211.802154,110.540584 220.255667,109.313908 L211.495794,48.9461628 L211.495794,48.9461628 Z M121.386992,81.9154404 C111.630453,87.9937985 102.331884,94.7802037 93.5668472,102.214452 L133.023975,148.734717 C139.522519,143.222842 146.414459,138.192875 153.642564,133.68974 L121.386992,81.9154404 L121.386992,81.9154404 Z M52.0167973,148.090595 C45.4835497,157.550093 39.6492821,167.478863 34.566938,177.799618 L89.2914973,204.748135 C93.0518289,197.112002 97.370695,189.762145 102.209316,182.756299 L52.0167973,148.090595 L52.0167973,148.090595 Z M14.8191342,236.451641 C12.6366524,247.684392 11.2723689,259.106234 10.7466149,270.65003 L71.6834475,273.425355 C72.0735515,264.859979 73.08417,256.399036 74.6993347,248.08614 L14.8191342,236.451641 L14.8191342,236.451641 Z M16.0131569,332.306198 C18.4973642,343.571218 21.8050432,354.60485 25.9025238,365.332587 L82.8873038,343.567136 C79.8604205,335.642362 77.4172871,327.492649 75.5819119,319.169858 L16.0131569,332.306198 L16.0131569,332.306198 Z M55.4397295,419.734742 C62.2043419,429.021569 69.6406744,437.803608 77.683833,446.007641 L121.242304,403.303313 C115.276379,397.218062 109.761286,390.704937 104.745958,383.819622 L55.4397295,419.734742 L55.4397295,419.734742 Z M126.502351,484.181807 C136.411323,490.01045 146.740707,495.107128 157.413052,499.424626 L180.289515,442.876704 C172.400397,439.685161 164.761562,435.916042 157.429933,431.60344 L126.502351,484.181807 L126.502351,484.181807 Z M217.344159,514.827642 C226.642514,515.939414 236.03803,516.499828 245.495644,516.5 L245.496754,455.5 C238.460537,455.499872 231.482904,455.083677 224.58613,454.259054 L217.344159,514.827642 L217.344159,514.827642 Z" id="Shape" fill="#2092ED" sketch:type="MSShapeGroup" mask="url(#mask-2)"></path>
            <path d="M351,282 C351,223.457817 303.542183,176 245,176 C186.457817,176 139,223.457817 139,282 L351,282 Z" id="Oval-50-Copy" fill="#2092ED" sketch:type="MSShapeGroup" mask="url(#mask-2)"></path>
        </g>
    </g>
</svg>